<svg xmlns="http://www.w3.org/2000/svg" viewBox="0 0 384 512">
	<path d="M81 472.2c-4.3 17.2 6.1 34.5 23.3 38.8 2.6 .7 5.2 1 7.8 1 14.3 0 27.4-9.7 31-24.2l25.2-101-52.8-52.8-34.6 138.2zm14.9-196.1L137 117c2.2-8.4-3.1-17-11.9-19.1-43.9-10.5-88.4 15.1-99.3 57.2L.5 253.2c-2.2 8.4 3.1 17 11.9 19.1l63.6 15.3c8.8 2.1 17.7-3 19.9-11.4zM368 160h-16c-8.8 0-16 7.2-16 16v16h-34.8l-46.8-46.8C243.4 134.1 228.6 128 212.9 128c-27 0-50.5 18.3-57 44.5l-26.9 107.7a32 32 0 0 0 8.4 30.4L224 397.3V480c0 17.7 14.3 32 32 32s32-14.3 32-32v-82.8c0-17.1-6.7-33.2-18.8-45.3l-46.8-46.8c.2-.5 .5-.9 .6-1.4l19.9-79.6 22.4 22.4c6 6 14.1 9.4 22.6 9.4h48v240c0 8.8 7.2 16 16 16h16c8.8 0 16-7.2 16-16V176c0-8.8-7.2-16-16-16zM240 96c26.5 0 48-21.5 48-48S266.5 0 240 0s-48 21.5-48 48 21.5 48 48 48z"/>
</svg>